<svg width="169" height="58" viewBox="0 0 169 58" fill="none" xmlns="http://www.w3.org/2000/svg">
<rect width="169" height="58" rx="6" fill="#F5B500"/>
<path d="M34.1362 37.4523C33.6978 38.4744 33.1561 39.449 32.5197 40.3609C31.6694 41.5753 30.9712 42.4145 30.436 42.8816C29.6047 43.6447 28.7117 44.0374 27.757 44.0596C27.073 44.0596 26.2465 43.8648 25.2838 43.469C24.318 43.0747 23.4313 42.8816 22.6191 42.8816C21.7688 42.8816 20.8568 43.0747 19.8799 43.469C18.9046 43.8648 18.1161 44.0722 17.5128 44.0912C16.5992 44.1308 15.6857 43.7287 14.7752 42.8816C14.1942 42.3749 13.4674 41.5041 12.595 40.2722C11.6608 38.9597 10.8929 37.4318 10.2912 35.6948C9.64682 33.8154 9.32382 31.9978 9.32382 30.2371C9.32382 28.2215 9.75924 26.4814 10.6317 25.0247C11.2915 23.8807 12.2349 22.9259 13.3708 22.2523C14.491 21.5805 15.7697 21.2187 17.0758 21.2042C17.8042 21.2042 18.7589 21.429 19.9417 21.8723C21.1244 22.3157 21.8844 22.5405 22.2153 22.5405C22.4655 22.5405 23.3062 22.2761 24.7376 21.752C26.0882 21.2659 27.2282 21.0648 28.1623 21.144C30.6957 21.3483 32.5972 22.3458 33.8623 24.1444C31.5982 25.5172 30.4787 27.4378 30.5009 29.903C30.5199 31.8236 31.2182 33.4212 32.5862 34.6894C33.1909 35.2682 33.8966 35.7313 34.6682 36.0558C34.5004 36.5419 34.3231 37.0058 34.1362 37.4523V37.4523ZM28.3302 14.6033C28.3302 16.1074 27.7792 17.5134 26.6851 18.8133C25.3614 20.3587 23.7622 21.2533 22.0285 21.1123C22.0058 20.9232 21.9947 20.7328 21.9952 20.5423C21.9952 19.0968 22.6222 17.5514 23.7417 16.2863C24.299 15.6467 25.0083 15.1131 25.8681 14.6888C26.7262 14.2708 27.5369 14.0396 28.3001 14C28.3207 14.2027 28.3302 14.4038 28.3302 14.6033V14.6033Z" fill="black"/>
<path d="M47.4304 18V13.6364H49.1009C49.4162 13.6364 49.6783 13.6861 49.8871 13.7855C50.0973 13.8835 50.2543 14.0178 50.358 14.1882C50.4631 14.3587 50.5156 14.5518 50.5156 14.7678C50.5156 14.9453 50.4815 15.0973 50.4134 15.2237C50.3452 15.3487 50.2536 15.4503 50.1385 15.5284C50.0234 15.6065 49.8949 15.6626 49.7528 15.6967V15.7393C49.9077 15.7479 50.0561 15.7955 50.1982 15.8821C50.3416 15.9673 50.4588 16.0881 50.5497 16.2443C50.6406 16.4006 50.6861 16.5895 50.6861 16.8111C50.6861 17.0369 50.6314 17.2401 50.522 17.4205C50.4126 17.5994 50.2479 17.7408 50.0277 17.8445C49.8075 17.9482 49.5305 18 49.1967 18H47.4304ZM48.2209 17.3395H49.071C49.358 17.3395 49.5646 17.2848 49.6911 17.1754C49.8189 17.0646 49.8828 16.9226 49.8828 16.7493C49.8828 16.62 49.8509 16.5036 49.7869 16.3999C49.723 16.2947 49.6321 16.2124 49.5142 16.1527C49.3963 16.0916 49.2557 16.0611 49.0923 16.0611H48.2209V17.3395ZM48.2209 15.4922H49.0028C49.1392 15.4922 49.2621 15.4673 49.3714 15.4176C49.4808 15.3665 49.5668 15.2947 49.6293 15.2024C49.6932 15.1087 49.7251 14.9979 49.7251 14.87C49.7251 14.701 49.6655 14.5618 49.5462 14.4524C49.4283 14.343 49.2528 14.2884 49.0199 14.2884H48.2209V15.4922ZM51.9341 18H51.0904L52.6266 13.6364H53.6025L55.1408 18H54.2971L53.1316 14.5312H53.0975L51.9341 18ZM51.9618 16.2891H54.263V16.924H51.9618V16.2891ZM56.506 13.6364V18H55.7156V13.6364H56.506ZM58.0225 13.6364L58.9835 15.2344H59.0176L59.9828 13.6364H60.8841L59.5396 15.8182L60.9054 18H59.9892L59.0176 16.4126H58.9835L58.0119 18H57.1L58.4785 15.8182L57.117 13.6364H58.0225ZM61.5046 18V13.6364H64.3427V14.299H62.2951V15.4837H64.1957V16.1463H62.2951V17.3374H64.3597V18H61.5046ZM70.2234 13.6364V18H69.5202L67.4641 15.0277H67.4279V18H66.6374V13.6364H67.3448L69.3988 16.6108H69.4371V13.6364H70.2234ZM74.9838 15.8182C74.9838 16.2884 74.8958 16.6911 74.7196 17.0263C74.5449 17.3601 74.3063 17.6158 74.0037 17.7933C73.7026 17.9709 73.361 18.0597 72.9789 18.0597C72.5968 18.0597 72.2544 17.9709 71.9519 17.7933C71.6507 17.6143 71.4121 17.358 71.236 17.0241C71.0613 16.6889 70.9739 16.2869 70.9739 15.8182C70.9739 15.348 71.0613 14.946 71.236 14.6122C71.4121 14.277 71.6507 14.0206 71.9519 13.843C72.2544 13.6655 72.5968 13.5767 72.9789 13.5767C73.361 13.5767 73.7026 13.6655 74.0037 13.843C74.3063 14.0206 74.5449 14.277 74.7196 14.6122C74.8958 14.946 74.9838 15.348 74.9838 15.8182ZM74.1891 15.8182C74.1891 15.4872 74.1373 15.2081 74.0336 14.9808C73.9313 14.7521 73.7892 14.5795 73.6074 14.4631C73.4256 14.3452 73.2161 14.2862 72.9789 14.2862C72.7417 14.2862 72.5321 14.3452 72.3503 14.4631C72.1685 14.5795 72.0257 14.7521 71.9221 14.9808C71.8198 15.2081 71.7686 15.4872 71.7686 15.8182C71.7686 16.1491 71.8198 16.429 71.9221 16.6577C72.0257 16.8849 72.1685 17.0575 72.3503 17.1754C72.5321 17.2919 72.7417 17.3501 72.9789 17.3501C73.2161 17.3501 73.4256 17.2919 73.6074 17.1754C73.7892 17.0575 73.9313 16.8849 74.0336 16.6577C74.1373 16.429 74.1891 16.1491 74.1891 15.8182Z" fill="black"/>
<path d="M44.9631 41H41.5881L47.733 23.5455H51.6364L57.7898 41H54.4148L49.7528 27.125H49.6165L44.9631 41ZM45.0739 34.1562H54.2784V36.696H45.0739V34.1562ZM59.9524 45.9091V27.9091H62.9865V30.0739H63.1655C63.3246 29.7557 63.549 29.4176 63.8388 29.0597C64.1286 28.696 64.5206 28.3864 65.0149 28.1307C65.5092 27.8693 66.1399 27.7386 66.907 27.7386C67.9183 27.7386 68.8303 27.9972 69.6428 28.5142C70.4609 29.0256 71.1087 29.7841 71.5859 30.7898C72.0689 31.7898 72.3104 33.017 72.3104 34.4716C72.3104 35.9091 72.0746 37.1307 71.603 38.1364C71.1314 39.142 70.4893 39.9091 69.6768 40.4375C68.8643 40.9659 67.9439 41.2301 66.9155 41.2301C66.1655 41.2301 65.5433 41.1051 65.049 40.8551C64.5547 40.6051 64.157 40.304 63.8558 39.9517C63.5604 39.5937 63.3303 39.2557 63.1655 38.9375H63.0376V45.9091H59.9524ZM62.978 34.4545C62.978 35.3011 63.0973 36.0426 63.3359 36.679C63.5803 37.3153 63.9297 37.8125 64.3842 38.1705C64.8445 38.5227 65.4013 38.6989 66.0547 38.6989C66.7365 38.6989 67.3075 38.517 67.7678 38.1534C68.228 37.7841 68.5746 37.2812 68.8075 36.6449C69.0462 36.0028 69.1655 35.2727 69.1655 34.4545C69.1655 33.642 69.049 32.9205 68.8161 32.2898C68.5831 31.6591 68.2365 31.1648 67.7763 30.8068C67.3161 30.4489 66.7422 30.2699 66.0547 30.2699C65.3956 30.2699 64.8359 30.4432 64.3757 30.7898C63.9155 31.1364 63.5661 31.6222 63.3274 32.2472C63.0945 32.8722 62.978 33.608 62.978 34.4545ZM74.9524 45.9091V27.9091H77.9865V30.0739H78.1655C78.3246 29.7557 78.549 29.4176 78.8388 29.0597C79.1286 28.696 79.5206 28.3864 80.0149 28.1307C80.5092 27.8693 81.1399 27.7386 81.907 27.7386C82.9183 27.7386 83.8303 27.9972 84.6428 28.5142C85.4609 29.0256 86.1087 29.7841 86.5859 30.7898C87.0689 31.7898 87.3104 33.017 87.3104 34.4716C87.3104 35.9091 87.0746 37.1307 86.603 38.1364C86.1314 39.142 85.4893 39.9091 84.6768 40.4375C83.8643 40.9659 82.9439 41.2301 81.9155 41.2301C81.1655 41.2301 80.5433 41.1051 80.049 40.8551C79.5547 40.6051 79.157 40.304 78.8558 39.9517C78.5604 39.5937 78.3303 39.2557 78.1655 38.9375H78.0376V45.9091H74.9524ZM77.978 34.4545C77.978 35.3011 78.0973 36.0426 78.3359 36.679C78.5803 37.3153 78.9297 37.8125 79.3842 38.1705C79.8445 38.5227 80.4013 38.6989 81.0547 38.6989C81.7365 38.6989 82.3075 38.517 82.7678 38.1534C83.228 37.7841 83.5746 37.2812 83.8075 36.6449C84.0462 36.0028 84.1655 35.2727 84.1655 34.4545C84.1655 33.642 84.049 32.9205 83.8161 32.2898C83.5831 31.6591 83.2365 31.1648 82.7763 30.8068C82.3161 30.4489 81.7422 30.2699 81.0547 30.2699C80.3956 30.2699 79.8359 30.4432 79.3757 30.7898C78.9155 31.1364 78.5661 31.6222 78.3274 32.2472C78.0945 32.8722 77.978 33.608 77.978 34.4545ZM105.528 28.3438C105.448 27.5994 105.113 27.0199 104.522 26.6051C103.937 26.1903 103.175 25.983 102.238 25.983C101.579 25.983 101.013 26.0824 100.542 26.2812C100.07 26.4801 99.7095 26.75 99.4595 27.0909C99.2095 27.4318 99.0817 27.821 99.076 28.2585C99.076 28.6222 99.1584 28.9375 99.3232 29.2045C99.4936 29.4716 99.7237 29.6989 100.013 29.8864C100.303 30.0682 100.624 30.2216 100.977 30.3466C101.329 30.4716 101.684 30.5767 102.042 30.6619L103.678 31.071C104.337 31.2244 104.971 31.4318 105.579 31.6932C106.192 31.9545 106.741 32.2841 107.224 32.6818C107.712 33.0795 108.099 33.5597 108.383 34.1222C108.667 34.6847 108.809 35.3437 108.809 36.0994C108.809 37.1222 108.548 38.0227 108.025 38.8011C107.502 39.5739 106.746 40.179 105.758 40.6165C104.775 41.0483 103.585 41.2642 102.187 41.2642C100.829 41.2642 99.6499 41.054 98.6499 40.6335C97.6555 40.2131 96.8771 39.5994 96.3146 38.7926C95.7578 37.9858 95.4567 37.0028 95.4112 35.8438H98.522C98.5675 36.4517 98.755 36.9574 99.0845 37.3608C99.4141 37.7642 99.843 38.0653 100.371 38.2642C100.906 38.4631 101.502 38.5625 102.161 38.5625C102.849 38.5625 103.451 38.4602 103.968 38.2557C104.491 38.0455 104.9 37.7557 105.195 37.3864C105.491 37.0114 105.641 36.5739 105.647 36.0739C105.641 35.6193 105.508 35.2443 105.246 34.9489C104.985 34.6477 104.619 34.3977 104.147 34.1989C103.681 33.9943 103.136 33.8125 102.511 33.6534L100.525 33.142C99.0874 32.7727 97.951 32.2131 97.1158 31.4631C96.2862 30.7074 95.8714 29.7045 95.8714 28.4545C95.8714 27.4261 96.1499 26.5256 96.7067 25.7528C97.2692 24.9801 98.0334 24.3807 98.9993 23.9545C99.9652 23.5227 101.059 23.3068 102.281 23.3068C103.519 23.3068 104.604 23.5227 105.536 23.9545C106.474 24.3807 107.21 24.9744 107.744 25.7358C108.278 26.4915 108.553 27.3608 108.57 28.3438H105.528ZM118.028 27.9091V30.2955H110.503V27.9091H118.028ZM112.361 24.7727H115.446V37.0625C115.446 37.4773 115.509 37.7955 115.634 38.017C115.764 38.233 115.935 38.3807 116.145 38.4602C116.355 38.5398 116.588 38.5795 116.844 38.5795C117.037 38.5795 117.213 38.5653 117.372 38.5369C117.537 38.5085 117.662 38.483 117.747 38.4602L118.267 40.8722C118.102 40.929 117.866 40.9915 117.56 41.0597C117.259 41.1278 116.889 41.1676 116.452 41.179C115.679 41.2017 114.983 41.0852 114.364 40.8295C113.744 40.5682 113.253 40.1648 112.889 39.6193C112.531 39.0739 112.355 38.392 112.361 37.5739V24.7727ZM126.178 41.2557C124.9 41.2557 123.792 40.9744 122.854 40.4119C121.917 39.8494 121.19 39.0625 120.673 38.0511C120.161 37.0398 119.906 35.858 119.906 34.5057C119.906 33.1534 120.161 31.9687 120.673 30.9517C121.19 29.9347 121.917 29.1449 122.854 28.5824C123.792 28.0199 124.9 27.7386 126.178 27.7386C127.457 27.7386 128.565 28.0199 129.502 28.5824C130.44 29.1449 131.164 29.9347 131.675 30.9517C132.192 31.9687 132.451 33.1534 132.451 34.5057C132.451 35.858 132.192 37.0398 131.675 38.0511C131.164 39.0625 130.44 39.8494 129.502 40.4119C128.565 40.9744 127.457 41.2557 126.178 41.2557ZM126.195 38.7841C126.888 38.7841 127.468 38.5937 127.934 38.2131C128.4 37.8267 128.746 37.3097 128.974 36.6619C129.207 36.0142 129.323 35.2926 129.323 34.4972C129.323 33.696 129.207 32.9716 128.974 32.3239C128.746 31.6705 128.4 31.1506 127.934 30.7642C127.468 30.3778 126.888 30.1847 126.195 30.1847C125.485 30.1847 124.894 30.3778 124.423 30.7642C123.957 31.1506 123.607 31.6705 123.374 32.3239C123.147 32.9716 123.033 33.696 123.033 34.4972C123.033 35.2926 123.147 36.0142 123.374 36.6619C123.607 37.3097 123.957 37.8267 124.423 38.2131C124.894 38.5937 125.485 38.7841 126.195 38.7841ZM135.07 41V27.9091H138.061V30.0909H138.197C138.436 29.3352 138.845 28.7528 139.425 28.3438C140.01 27.929 140.678 27.7216 141.428 27.7216C141.598 27.7216 141.788 27.7301 141.999 27.7472C142.214 27.7585 142.393 27.7784 142.536 27.8068V30.6449C142.405 30.5994 142.197 30.5597 141.913 30.5256C141.635 30.4858 141.365 30.4659 141.104 30.4659C140.541 30.4659 140.036 30.5881 139.587 30.8324C139.143 31.071 138.794 31.4034 138.538 31.8295C138.283 32.2557 138.155 32.7472 138.155 33.304V41H135.07ZM149.842 41.2557C148.529 41.2557 147.396 40.983 146.441 40.4375C145.492 39.8864 144.762 39.108 144.251 38.1023C143.739 37.0909 143.484 35.9006 143.484 34.5312C143.484 33.1847 143.739 32.0028 144.251 30.9858C144.768 29.9631 145.489 29.1676 146.415 28.5994C147.342 28.0256 148.43 27.7386 149.68 27.7386C150.487 27.7386 151.248 27.8693 151.964 28.1307C152.685 28.3864 153.322 28.7841 153.873 29.3239C154.43 29.8636 154.867 30.5511 155.185 31.3864C155.504 32.2159 155.663 33.2045 155.663 34.3523V35.2983H144.933V33.2188H152.705C152.7 32.6278 152.572 32.1023 152.322 31.642C152.072 31.1761 151.722 30.8097 151.273 30.5426C150.83 30.2756 150.313 30.142 149.722 30.142C149.092 30.142 148.538 30.2955 148.06 30.6023C147.583 30.9034 147.211 31.3011 146.944 31.7955C146.683 32.2841 146.549 32.821 146.543 33.4062V35.2216C146.543 35.983 146.683 36.6364 146.961 37.1818C147.239 37.7216 147.629 38.1364 148.129 38.4261C148.629 38.7102 149.214 38.8523 149.884 38.8523C150.333 38.8523 150.739 38.7898 151.103 38.6648C151.467 38.5341 151.782 38.3438 152.049 38.0938C152.316 37.8438 152.518 37.5341 152.654 37.1648L155.535 37.4886C155.353 38.25 155.006 38.9148 154.495 39.483C153.989 40.0455 153.342 40.483 152.552 40.7955C151.762 41.1023 150.859 41.2557 149.842 41.2557Z" fill="black"/>
</svg>
