<svg width="169" height="58" viewBox="0 0 169 58" fill="none" xmlns="http://www.w3.org/2000/svg">
<rect width="169" height="58" rx="6" fill="#F5B500"/>
<path d="M24.8118 28.9718L28.8776 24.906L15.745 17.525C14.8746 17.0547 14.0592 16.9887 13.3442 17.503L24.8118 28.9718ZM29.5706 33.7321L33.7974 31.3547C34.6224 30.8927 35.0747 30.2382 35.0747 29.5122C35.0747 28.7876 34.6224 28.1317 33.7987 27.6697L29.9721 25.5206L25.6643 29.8271L29.5706 33.7321V33.7321ZM12.6375 18.5026C12.5495 18.7735 12.5 19.076 12.5 19.4073V39.6267C12.5 40.1506 12.6155 40.6016 12.8245 40.9605L23.9579 29.8257L12.6375 18.5026ZM24.8118 30.6782L13.7402 41.7511C13.952 41.8322 14.1802 41.8748 14.4209 41.8748C14.8499 41.8748 15.2967 41.7483 15.7519 41.4953L28.4775 34.3495L24.8118 30.6782V30.6782Z" fill="black"/>
<path d="M46.4304 20V15.6364H48.1009C48.4162 15.6364 48.6783 15.6861 48.8871 15.7855C49.0973 15.8835 49.2543 16.0178 49.358 16.1882C49.4631 16.3587 49.5156 16.5518 49.5156 16.7678C49.5156 16.9453 49.4815 17.0973 49.4134 17.2237C49.3452 17.3487 49.2536 17.4503 49.1385 17.5284C49.0234 17.6065 48.8949 17.6626 48.7528 17.6967V17.7393C48.9077 17.7479 49.0561 17.7955 49.1982 17.8821C49.3416 17.9673 49.4588 18.0881 49.5497 18.2443C49.6406 18.4006 49.6861 18.5895 49.6861 18.8111C49.6861 19.0369 49.6314 19.2401 49.522 19.4205C49.4126 19.5994 49.2479 19.7408 49.0277 19.8445C48.8075 19.9482 48.5305 20 48.1967 20H46.4304ZM47.2209 19.3395H48.071C48.358 19.3395 48.5646 19.2848 48.6911 19.1754C48.8189 19.0646 48.8828 18.9226 48.8828 18.7493C48.8828 18.62 48.8509 18.5036 48.7869 18.3999C48.723 18.2947 48.6321 18.2124 48.5142 18.1527C48.3963 18.0916 48.2557 18.0611 48.0923 18.0611H47.2209V19.3395ZM47.2209 17.4922H48.0028C48.1392 17.4922 48.2621 17.4673 48.3714 17.4176C48.4808 17.3665 48.5668 17.2947 48.6293 17.2024C48.6932 17.1087 48.7251 16.9979 48.7251 16.87C48.7251 16.701 48.6655 16.5618 48.5462 16.4524C48.4283 16.343 48.2528 16.2884 48.0199 16.2884H47.2209V17.4922ZM50.9341 20H50.0904L51.6266 15.6364H52.6025L54.1408 20H53.2971L52.1316 16.5312H52.0975L50.9341 20ZM50.9618 18.2891H53.263V18.924H50.9618V18.2891ZM55.506 15.6364V20H54.7156V15.6364H55.506ZM57.0225 15.6364L57.9835 17.2344H58.0176L58.9828 15.6364H59.8841L58.5396 17.8182L59.9054 20H58.9892L58.0176 18.4126H57.9835L57.0119 20H56.1L57.4785 17.8182L56.117 15.6364H57.0225ZM60.5046 20V15.6364H63.3427V16.299H61.2951V17.4837H63.1957V18.1463H61.2951V19.3374H63.3597V20H60.5046ZM69.2234 15.6364V20H68.5202L66.4641 17.0277H66.4279V20H65.6374V15.6364H66.3448L68.3988 18.6108H68.4371V15.6364H69.2234ZM73.9838 17.8182C73.9838 18.2884 73.8958 18.6911 73.7196 19.0263C73.5449 19.3601 73.3063 19.6158 73.0037 19.7933C72.7026 19.9709 72.361 20.0597 71.9789 20.0597C71.5968 20.0597 71.2544 19.9709 70.9519 19.7933C70.6507 19.6143 70.4121 19.358 70.236 19.0241C70.0613 18.6889 69.9739 18.2869 69.9739 17.8182C69.9739 17.348 70.0613 16.946 70.236 16.6122C70.4121 16.277 70.6507 16.0206 70.9519 15.843C71.2544 15.6655 71.5968 15.5767 71.9789 15.5767C72.361 15.5767 72.7026 15.6655 73.0037 15.843C73.3063 16.0206 73.5449 16.277 73.7196 16.6122C73.8958 16.946 73.9838 17.348 73.9838 17.8182ZM73.1891 17.8182C73.1891 17.4872 73.1373 17.2081 73.0336 16.9808C72.9313 16.7521 72.7892 16.5795 72.6074 16.4631C72.4256 16.3452 72.2161 16.2862 71.9789 16.2862C71.7417 16.2862 71.5321 16.3452 71.3503 16.4631C71.1685 16.5795 71.0257 16.7521 70.9221 16.9808C70.8198 17.2081 70.7686 17.4872 70.7686 17.8182C70.7686 18.1491 70.8198 18.429 70.9221 18.6577C71.0257 18.8849 71.1685 19.0575 71.3503 19.1754C71.5321 19.2919 71.7417 19.3501 71.9789 19.3501C72.2161 19.3501 72.4256 19.2919 72.6074 19.1754C72.7892 19.0575 72.9313 18.8849 73.0336 18.6577C73.1373 18.429 73.1891 18.1491 73.1891 17.8182Z" fill="black"/>
<path d="M55.4418 29.0497C55.3045 28.6188 55.1198 28.233 54.8878 27.892C54.6605 27.5464 54.3883 27.2528 54.071 27.0114C53.7538 26.7652 53.3916 26.5781 52.9844 26.4503C52.5819 26.3224 52.1392 26.2585 51.6562 26.2585C50.8371 26.2585 50.0985 26.4692 49.4403 26.8906C48.7822 27.312 48.2614 27.9299 47.8778 28.7443C47.4991 29.554 47.3097 30.5459 47.3097 31.7202C47.3097 32.8991 47.5014 33.8958 47.8849 34.7102C48.2685 35.5246 48.794 36.1425 49.4616 36.5639C50.1293 36.9853 50.8892 37.196 51.7415 37.196C52.5322 37.196 53.2211 37.035 53.8082 36.7131C54.4001 36.3911 54.857 35.9366 55.179 35.3494C55.5057 34.7576 55.669 34.0616 55.669 33.2614L56.2372 33.3679H52.0753V31.5568H57.7926V33.2116C57.7926 34.4332 57.5322 35.4938 57.0114 36.3935C56.4953 37.2884 55.7803 37.9796 54.8665 38.4673C53.9574 38.955 52.9157 39.1989 51.7415 39.1989C50.4252 39.1989 49.2699 38.8958 48.2756 38.2898C47.286 37.6837 46.5142 36.8243 45.9602 35.7116C45.4063 34.5942 45.1293 33.2685 45.1293 31.7344C45.1293 30.5743 45.2902 29.5327 45.6122 28.6094C45.9342 27.6861 46.3864 26.9025 46.9688 26.2585C47.5559 25.6098 48.2448 25.1151 49.0355 24.7741C49.831 24.4285 50.6998 24.2557 51.642 24.2557C52.428 24.2557 53.1596 24.3717 53.8366 24.6037C54.5185 24.8357 55.1245 25.1648 55.6548 25.5909C56.1899 26.017 56.6326 26.5237 56.983 27.1108C57.3333 27.6932 57.5701 28.3395 57.6932 29.0497H55.4418ZM65.0032 39.2202C63.9805 39.2202 63.0879 38.9858 62.3256 38.517C61.5633 38.0483 60.9715 37.3925 60.5501 36.5497C60.1287 35.7069 59.918 34.7221 59.918 33.5952C59.918 32.4635 60.1287 31.474 60.5501 30.6264C60.9715 29.7789 61.5633 29.1207 62.3256 28.652C63.0879 28.1832 63.9805 27.9489 65.0032 27.9489C66.0259 27.9489 66.9184 28.1832 67.6808 28.652C68.4431 29.1207 69.0349 29.7789 69.4563 30.6264C69.8777 31.474 70.0884 32.4635 70.0884 33.5952C70.0884 34.7221 69.8777 35.7069 69.4563 36.5497C69.0349 37.3925 68.4431 38.0483 67.6808 38.517C66.9184 38.9858 66.0259 39.2202 65.0032 39.2202ZM65.0103 37.4375C65.6732 37.4375 66.2224 37.2623 66.658 36.9119C67.0936 36.5616 67.4156 36.0952 67.6239 35.5128C67.837 34.9304 67.9435 34.2888 67.9435 33.5881C67.9435 32.892 67.837 32.2528 67.6239 31.6705C67.4156 31.0833 67.0936 30.6122 66.658 30.2571C66.2224 29.902 65.6732 29.7244 65.0103 29.7244C64.3427 29.7244 63.7887 29.902 63.3484 30.2571C62.9128 30.6122 62.5884 31.0833 62.3754 31.6705C62.167 32.2528 62.0629 32.892 62.0629 33.5881C62.0629 34.2888 62.167 34.9304 62.3754 35.5128C62.5884 36.0952 62.9128 36.5616 63.3484 36.9119C63.7887 37.2623 64.3427 37.4375 65.0103 37.4375ZM77.054 39.2202C76.0313 39.2202 75.1387 38.9858 74.3764 38.517C73.6141 38.0483 73.0223 37.3925 72.6009 36.5497C72.1795 35.7069 71.9688 34.7221 71.9688 33.5952C71.9688 32.4635 72.1795 31.474 72.6009 30.6264C73.0223 29.7789 73.6141 29.1207 74.3764 28.652C75.1387 28.1832 76.0313 27.9489 77.054 27.9489C78.0767 27.9489 78.9692 28.1832 79.7315 28.652C80.4938 29.1207 81.0857 29.7789 81.5071 30.6264C81.9285 31.474 82.1392 32.4635 82.1392 33.5952C82.1392 34.7221 81.9285 35.7069 81.5071 36.5497C81.0857 37.3925 80.4938 38.0483 79.7315 38.517C78.9692 38.9858 78.0767 39.2202 77.054 39.2202ZM77.0611 37.4375C77.724 37.4375 78.2732 37.2623 78.7088 36.9119C79.1444 36.5616 79.4664 36.0952 79.6747 35.5128C79.8878 34.9304 79.9943 34.2888 79.9943 33.5881C79.9943 32.892 79.8878 32.2528 79.6747 31.6705C79.4664 31.0833 79.1444 30.6122 78.7088 30.2571C78.2732 29.902 77.724 29.7244 77.0611 29.7244C76.3935 29.7244 75.8395 29.902 75.3991 30.2571C74.9635 30.6122 74.6392 31.0833 74.4261 31.6705C74.2178 32.2528 74.1136 32.892 74.1136 33.5881C74.1136 34.2888 74.2178 34.9304 74.4261 35.5128C74.6392 36.0952 74.9635 36.5616 75.3991 36.9119C75.8395 37.2623 76.3935 37.4375 77.0611 37.4375ZM89.0835 43.3182C88.217 43.3182 87.4712 43.2045 86.8462 42.9773C86.226 42.75 85.7193 42.4493 85.3263 42.0753C84.9334 41.7012 84.6398 41.2917 84.4457 40.8466L86.271 40.0938C86.3988 40.3021 86.5692 40.5223 86.7823 40.7543C87.0001 40.991 87.2937 41.1922 87.663 41.358C88.0371 41.5237 88.5176 41.6065 89.1048 41.6065C89.9097 41.6065 90.5749 41.41 91.1005 41.017C91.6261 40.6288 91.8888 40.0085 91.8888 39.1562V37.0114H91.7539C91.6261 37.2434 91.4414 37.5014 91.1999 37.7855C90.9632 38.0696 90.6365 38.3158 90.2198 38.5241C89.8031 38.7325 89.261 38.8366 88.5934 38.8366C87.7317 38.8366 86.9551 38.6354 86.2638 38.233C85.5773 37.8258 85.0328 37.2268 84.6303 36.4361C84.2326 35.6406 84.0337 34.6629 84.0337 33.5028C84.0337 32.3428 84.2302 31.3485 84.6232 30.5199C85.021 29.6913 85.5655 29.0568 86.2567 28.6165C86.948 28.1714 87.7317 27.9489 88.6076 27.9489C89.2847 27.9489 89.8316 28.0625 90.2482 28.2898C90.6649 28.5123 90.9892 28.7727 91.2212 29.071C91.458 29.3693 91.6403 29.6321 91.7681 29.8594H91.9244V28.0909H94.0053V39.2415C94.0053 40.179 93.7875 40.9484 93.3519 41.5497C92.9163 42.151 92.3268 42.5961 91.5835 42.8849C90.8448 43.1738 90.0115 43.3182 89.0835 43.3182ZM89.0621 37.0753C89.6729 37.0753 90.189 36.9332 90.6104 36.6491C91.0366 36.3603 91.3585 35.9484 91.5763 35.4134C91.7989 34.8736 91.9102 34.2273 91.9102 33.4744C91.9102 32.7405 91.8013 32.0942 91.5835 31.5355C91.3656 30.9768 91.046 30.5412 90.6246 30.2287C90.2032 29.9115 89.6824 29.7528 89.0621 29.7528C88.4229 29.7528 87.8903 29.9186 87.4641 30.25C87.038 30.5767 86.716 31.0218 86.4982 31.5852C86.2852 32.1487 86.1786 32.7784 86.1786 33.4744C86.1786 34.1894 86.2875 34.8168 86.5053 35.3565C86.7231 35.8963 87.0451 36.3177 87.4712 36.6207C87.9021 36.9238 88.4324 37.0753 89.0621 37.0753ZM98.9769 24.4545V39H96.8533V24.4545H98.9769ZM106.536 39.2202C105.461 39.2202 104.535 38.9905 103.759 38.5312C102.987 38.0672 102.39 37.4162 101.969 36.5781C101.552 35.7353 101.344 34.7481 101.344 33.6165C101.344 32.4991 101.552 31.5142 101.969 30.6619C102.39 29.8097 102.977 29.1444 103.73 28.6662C104.488 28.188 105.373 27.9489 106.386 27.9489C107.002 27.9489 107.598 28.0507 108.176 28.2543C108.754 28.4579 109.272 28.7775 109.732 29.2131C110.191 29.6487 110.553 30.2145 110.818 30.9105C111.083 31.6018 111.216 32.4422 111.216 33.4318V34.1847H102.544V32.5938H109.135C109.135 32.035 109.021 31.5402 108.794 31.1094C108.567 30.6738 108.247 30.3305 107.835 30.0795C107.428 29.8286 106.95 29.7031 106.401 29.7031C105.804 29.7031 105.283 29.8499 104.838 30.1435C104.398 30.4323 104.057 30.8111 103.815 31.2798C103.579 31.7438 103.46 32.2481 103.46 32.7926V34.0355C103.46 34.7647 103.588 35.3849 103.844 35.8963C104.104 36.4077 104.466 36.7983 104.93 37.0682C105.394 37.3333 105.937 37.4659 106.557 37.4659C106.959 37.4659 107.326 37.4091 107.658 37.2955C107.989 37.1771 108.276 37.0019 108.517 36.7699C108.759 36.5379 108.943 36.2514 109.071 35.9105L111.081 36.2727C110.92 36.8646 110.631 37.383 110.214 37.8281C109.803 38.2685 109.284 38.6117 108.659 38.858C108.039 39.0994 107.331 39.2202 106.536 39.2202ZM119.036 39V24.4545H124.22C125.352 24.4545 126.289 24.6605 127.033 25.0724C127.776 25.4844 128.332 26.0478 128.702 26.7628C129.071 27.473 129.256 28.2732 129.256 29.1634C129.256 30.0582 129.069 30.8632 128.695 31.5781C128.325 32.2884 127.767 32.8518 127.018 33.2685C126.275 33.6804 125.34 33.8864 124.213 33.8864H120.648V32.0256H124.014C124.729 32.0256 125.309 31.9025 125.754 31.6562C126.199 31.4053 126.526 31.0644 126.734 30.6335C126.943 30.2027 127.047 29.7126 127.047 29.1634C127.047 28.6141 126.943 28.1264 126.734 27.7003C126.526 27.2741 126.197 26.9403 125.747 26.6989C125.302 26.4574 124.715 26.3366 123.986 26.3366H121.23V39H119.036ZM133.782 24.4545V39H131.658V24.4545H133.782ZM139.813 39.2415C139.122 39.2415 138.497 39.1136 137.938 38.858C137.379 38.5975 136.937 38.2211 136.61 37.7287C136.288 37.2363 136.127 36.6326 136.127 35.9176C136.127 35.3021 136.246 34.7955 136.482 34.3977C136.719 34 137.039 33.6851 137.441 33.4531C137.844 33.2211 138.293 33.0459 138.79 32.9276C139.288 32.8092 139.794 32.7192 140.31 32.6577C140.964 32.5819 141.494 32.5204 141.901 32.473C142.308 32.4209 142.604 32.3381 142.789 32.2244C142.974 32.1108 143.066 31.9261 143.066 31.6705V31.6207C143.066 31.0005 142.891 30.5199 142.54 30.179C142.195 29.8381 141.679 29.6676 140.992 29.6676C140.277 29.6676 139.714 29.8262 139.302 30.1435C138.895 30.456 138.613 30.804 138.457 31.1875L136.461 30.733C136.698 30.0701 137.043 29.535 137.498 29.1278C137.957 28.7159 138.485 28.4176 139.082 28.233C139.678 28.0436 140.306 27.9489 140.964 27.9489C141.399 27.9489 141.861 28.0009 142.349 28.1051C142.841 28.2045 143.3 28.3892 143.727 28.6591C144.157 28.929 144.51 29.3149 144.785 29.8168C145.059 30.3139 145.197 30.9602 145.197 31.7557V39H143.123V37.5085H143.038C142.9 37.7831 142.694 38.053 142.42 38.3182C142.145 38.5833 141.792 38.8035 141.362 38.9787C140.931 39.1539 140.415 39.2415 139.813 39.2415ZM140.275 37.5369C140.862 37.5369 141.364 37.4209 141.781 37.1889C142.202 36.9569 142.522 36.6539 142.739 36.2798C142.962 35.901 143.073 35.4962 143.073 35.0653V33.6591C142.997 33.7348 142.851 33.8059 142.633 33.8722C142.42 33.9337 142.176 33.9882 141.901 34.0355C141.627 34.0781 141.359 34.1184 141.099 34.1562C140.838 34.1894 140.621 34.2178 140.445 34.2415C140.033 34.2936 139.657 34.3812 139.316 34.5043C138.98 34.6274 138.71 34.8049 138.506 35.0369C138.308 35.2642 138.208 35.5672 138.208 35.946C138.208 36.4716 138.402 36.8693 138.79 37.1392C139.179 37.4044 139.674 37.5369 140.275 37.5369ZM148.977 43.0909C148.66 43.0909 148.371 43.0649 148.11 43.0128C147.85 42.9654 147.656 42.9134 147.528 42.8565L148.039 41.1165C148.428 41.2206 148.773 41.2656 149.076 41.2514C149.379 41.2372 149.647 41.1236 149.879 40.9105C150.116 40.6974 150.324 40.3494 150.504 39.8665L150.767 39.142L146.775 28.0909H149.048L151.811 36.5568H151.924L154.687 28.0909H156.967L152.471 40.456C152.263 41.0241 151.998 41.5047 151.676 41.8977C151.354 42.2955 150.97 42.5938 150.525 42.7926C150.08 42.9915 149.564 43.0909 148.977 43.0909Z" fill="black"/>
</svg>
